<svg xmlns="http://www.w3.org/2000/svg" xmlns:xlink="http://www.w3.org/1999/xlink" width="500" zoomAndPan="magnify" viewBox="0 0 375 374.999991" height="500" preserveAspectRatio="xMidYMid meet" version="1.0"><defs><clipPath id="476f065f33"><path d="M 19.734375 0 L 355.734375 0 L 355.734375 375 L 19.734375 375 Z M 19.734375 0 " clip-rule="nonzero"/></clipPath><clipPath id="727f407ce6"><path d="M 175 19.988281 L 349 19.988281 L 349 147 L 175 147 Z M 175 19.988281 " clip-rule="nonzero"/></clipPath><clipPath id="92f9fcec9e"><path d="M 351 149 L 355.828125 149 L 355.828125 154.238281 L 351 154.238281 Z M 351 149 " clip-rule="nonzero"/></clipPath><clipPath id="dbcbc12386"><path d="M 294 262 L 317 262 L 317 292 L 294 292 Z M 294 262 " clip-rule="nonzero"/></clipPath><clipPath id="d8ccca1ec1"><path d="M 169.519531 277.765625 L 334.160156 219.1875 L 361.816406 296.914062 L 197.175781 355.492188 Z M 169.519531 277.765625 " clip-rule="nonzero"/></clipPath><clipPath id="6fb6e77c42"><path d="M 361.921875 296.589844 L 197.285156 355.167969 L 169.628906 277.441406 L 334.269531 218.863281 Z M 361.921875 296.589844 " clip-rule="nonzero"/></clipPath><clipPath id="066d2004f0"><path d="M 316 258 L 354 258 L 354 285 L 316 285 Z M 316 258 " clip-rule="nonzero"/></clipPath><clipPath id="5bf674c062"><path d="M 169.519531 277.765625 L 334.160156 219.1875 L 361.816406 296.914062 L 197.175781 355.492188 Z M 169.519531 277.765625 " clip-rule="nonzero"/></clipPath><clipPath id="f12d5b98f9"><path d="M 361.921875 296.589844 L 197.285156 355.167969 L 169.628906 277.441406 L 334.269531 218.863281 Z M 361.921875 296.589844 " clip-rule="nonzero"/></clipPath><clipPath id="2b213d2be9"><path d="M 286 234 L 317 234 L 317 265 L 286 265 Z M 286 234 " clip-rule="nonzero"/></clipPath><clipPath id="9e3f58844a"><path d="M 169.519531 277.765625 L 334.160156 219.1875 L 361.816406 296.914062 L 197.175781 355.492188 Z M 169.519531 277.765625 " clip-rule="nonzero"/></clipPath><clipPath id="7eb5e6beab"><path d="M 361.921875 296.589844 L 197.285156 355.167969 L 169.628906 277.441406 L 334.269531 218.863281 Z M 361.921875 296.589844 " clip-rule="nonzero"/></clipPath><clipPath id="f6596cd14e"><path d="M 295 261 L 321 261 L 321 294 L 295 294 Z M 295 261 " clip-rule="nonzero"/></clipPath><clipPath id="e061fbbbb1"><path d="M 169.519531 277.765625 L 334.160156 219.1875 L 361.816406 296.914062 L 197.175781 355.492188 Z M 169.519531 277.765625 " clip-rule="nonzero"/></clipPath><clipPath id="6dae806b1e"><path d="M 361.921875 296.589844 L 197.285156 355.167969 L 169.628906 277.441406 L 334.269531 218.863281 Z M 361.921875 296.589844 " clip-rule="nonzero"/></clipPath><clipPath id="b551e49b5a"><path d="M 314 249 L 327 249 L 327 262 L 314 262 Z M 314 249 " clip-rule="nonzero"/></clipPath><clipPath id="c7527f2487"><path d="M 169.519531 277.765625 L 334.160156 219.1875 L 361.816406 296.914062 L 197.175781 355.492188 Z M 169.519531 277.765625 " clip-rule="nonzero"/></clipPath><clipPath id="5bc143334f"><path d="M 361.921875 296.589844 L 197.285156 355.167969 L 169.628906 277.441406 L 334.269531 218.863281 Z M 361.921875 296.589844 " clip-rule="nonzero"/></clipPath><clipPath id="6013de1d4d"><path d="M 316 241 L 323 241 L 323 251 L 316 251 Z M 316 241 " clip-rule="nonzero"/></clipPath><clipPath id="4f77b11d07"><path d="M 169.519531 277.765625 L 334.160156 219.1875 L 361.816406 296.914062 L 197.175781 355.492188 Z M 169.519531 277.765625 " clip-rule="nonzero"/></clipPath><clipPath id="76913f8537"><path d="M 361.921875 296.589844 L 197.285156 355.167969 L 169.628906 277.441406 L 334.269531 218.863281 Z M 361.921875 296.589844 " clip-rule="nonzero"/></clipPath><clipPath id="6948d324cf"><path d="M 324 250 L 336 250 L 336 254 L 324 254 Z M 324 250 " clip-rule="nonzero"/></clipPath><clipPath id="b84d5a7542"><path d="M 169.519531 277.765625 L 334.160156 219.1875 L 361.816406 296.914062 L 197.175781 355.492188 Z M 169.519531 277.765625 " clip-rule="nonzero"/></clipPath><clipPath id="11259f8f72"><path d="M 361.921875 296.589844 L 197.285156 355.167969 L 169.628906 277.441406 L 334.269531 218.863281 Z M 361.921875 296.589844 " clip-rule="nonzero"/></clipPath><clipPath id="39196bab5d"><path d="M 315 260 L 319 260 L 319 264 L 315 264 Z M 315 260 " clip-rule="nonzero"/></clipPath><clipPath id="2f6ef8d378"><path d="M 169.519531 277.765625 L 334.160156 219.1875 L 361.816406 296.914062 L 197.175781 355.492188 Z M 169.519531 277.765625 " clip-rule="nonzero"/></clipPath><clipPath id="20a9d616bc"><path d="M 361.921875 296.589844 L 197.285156 355.167969 L 169.628906 277.441406 L 334.269531 218.863281 Z M 361.921875 296.589844 " clip-rule="nonzero"/></clipPath><clipPath id="764d803b31"><path d="M 304 265 L 320 265 L 320 276 L 304 276 Z M 304 265 " clip-rule="nonzero"/></clipPath><clipPath id="8145eebaea"><path d="M 169.519531 277.765625 L 334.160156 219.1875 L 361.816406 296.914062 L 197.175781 355.492188 Z M 169.519531 277.765625 " clip-rule="nonzero"/></clipPath><clipPath id="288c71d00e"><path d="M 361.921875 296.589844 L 197.285156 355.167969 L 169.628906 277.441406 L 334.269531 218.863281 Z M 361.921875 296.589844 " clip-rule="nonzero"/></clipPath><clipPath id="15b278f8d0"><path d="M 295 279 L 311 279 L 311 290 L 295 290 Z M 295 279 " clip-rule="nonzero"/></clipPath><clipPath id="3e675ec4f1"><path d="M 169.519531 277.765625 L 334.160156 219.1875 L 361.816406 296.914062 L 197.175781 355.492188 Z M 169.519531 277.765625 " clip-rule="nonzero"/></clipPath><clipPath id="7b49b5780a"><path d="M 361.921875 296.589844 L 197.285156 355.167969 L 169.628906 277.441406 L 334.269531 218.863281 Z M 361.921875 296.589844 " clip-rule="nonzero"/></clipPath><clipPath id="d3f77e065c"><path d="M 298 271 L 317 271 L 317 284 L 298 284 Z M 298 271 " clip-rule="nonzero"/></clipPath><clipPath id="30fe0429aa"><path d="M 169.519531 277.765625 L 334.160156 219.1875 L 361.816406 296.914062 L 197.175781 355.492188 Z M 169.519531 277.765625 " clip-rule="nonzero"/></clipPath><clipPath id="638e06c797"><path d="M 361.921875 296.589844 L 197.285156 355.167969 L 169.628906 277.441406 L 334.269531 218.863281 Z M 361.921875 296.589844 " clip-rule="nonzero"/></clipPath><clipPath id="d6c4b3cfa0"><path d="M 184 283 L 293 283 L 293 345 L 184 345 Z M 184 283 " clip-rule="nonzero"/></clipPath><clipPath id="c6d4c6ec06"><path d="M 169.519531 277.765625 L 334.160156 219.1875 L 361.816406 296.914062 L 197.175781 355.492188 Z M 169.519531 277.765625 " clip-rule="nonzero"/></clipPath><clipPath id="d7f5d980c8"><path d="M 361.921875 296.589844 L 197.285156 355.167969 L 169.628906 277.441406 L 334.269531 218.863281 Z M 361.921875 296.589844 " clip-rule="nonzero"/></clipPath></defs><path fill="#fbcb1c" d="M 331.675781 83.511719 L 205.617188 18.261719 C 200.679688 15.703125 194.382812 14.300781 187.957031 14.300781 C 181.53125 14.300781 175.171875 15.6875 170.253906 18.242188 L 43.871094 83.398438 C 33.65625 88.675781 25.679688 100.160156 25.679688 110.703125 C 25.679688 110.703125 25.679688 124.28125 25.679688 124.28125 C 25.679688 135.410156 77.09375 130.121094 82.445312 128.171875 C 99.859375 121.824219 112.183594 114.773438 131.503906 122.308594 C 148.613281 128.984375 153.414062 144.332031 148.828125 159.90625 C 145.929688 169.738281 142.226562 196.835938 160.539062 196.835938 C 174.070312 196.835938 175.691406 178.503906 174.792969 170.386719 C 173.707031 160.65625 169.515625 152.574219 171.742188 142.804688 C 174.519531 130.613281 192.015625 106.660156 216.1875 115.949219 C 222.683594 118.441406 230.601562 123.753906 233.953125 128.257812 C 238.445312 134.300781 243.898438 141.234375 244.875 147.933594 C 248.167969 170.355469 224.304688 230.605469 257.589844 230.605469 C 284.96875 230.605469 271.109375 179.09375 268.53125 161.953125 C 267.003906 151.773438 268.488281 137.1875 275.335938 127.796875 C 277.148438 125.324219 280.601562 122.660156 283.851562 121.972656 C 290.988281 120.464844 298.707031 124.808594 302.730469 129.8125 C 306.398438 134.378906 308.820312 141.042969 315.730469 142.367188 C 319.597656 143.105469 323.769531 142.558594 326.398438 139.613281 C 331.28125 134.152344 336.871094 124.683594 339.226562 118.625 C 342.984375 109.074219 339.695312 100.722656 341.058594 90.886719 C 338.40625 87.886719 335.195312 85.328125 331.675781 83.511719 " fill-opacity="1" fill-rule="nonzero"/><g clip-path="url(#476f065f33)"><path fill="#fbcb1c" d="M 339.800781 263.167969 C 339.800781 269.902344 335.332031 278.207031 329.496094 281.570312 L 198.679688 357.117188 C 192.847656 360.484375 183.363281 360.484375 177.507812 357.117188 L 46.613281 281.457031 C 40.761719 278.070312 35.578125 269.789062 35.578125 263.035156 L 35.195312 131.300781 L 35.195312 111.804688 C 35.195312 105.070312 40.398438 96.789062 46.25 93.402344 L 177.410156 17.855469 C 183.265625 14.46875 192.933594 14.46875 198.785156 17.855469 L 329.15625 93.519531 C 335.007812 96.902344 339.226562 105.183594 339.226562 111.941406 L 339.226562 122.980469 Z M 347.1875 88.828125 C 344.433594 85.347656 341.125 82.382812 337.472656 80.277344 L 206.542969 4.617188 C 201.417969 1.652344 194.933594 0.0234375 188.257812 0.0234375 C 181.582031 0.0234375 175.101562 1.632812 169.992188 4.597656 L 38.539062 80.144531 C 27.921875 86.265625 19.734375 99.582031 19.734375 111.804688 L 19.734375 127.550781 L 20.214844 263.035156 C 20.214844 275.257812 28.15625 288.589844 38.730469 294.695312 L 169.808594 370.378906 C 174.9375 373.324219 181.480469 374.949219 188.15625 374.949219 C 194.828125 374.949219 201.34375 373.324219 206.453125 370.378906 L 337.417969 294.832031 C 348.015625 288.707031 355.710938 275.394531 355.710938 263.167969 L 355.753906 111.941406 C 355.753906 103.921875 352.449219 95.449219 347.1875 88.828125 " fill-opacity="1" fill-rule="nonzero"/></g><path fill="#100f0d" d="M 132.667969 68.746094 L 133.519531 68.894531 L 133.5 69.019531 C 133.402344 69.613281 133.007812 72.292969 133.007812 75.789062 C 133.007812 79.5625 133.472656 84.273438 135.214844 88.320312 C 136.082031 90.34375 137.265625 92.203125 138.851562 93.714844 C 140.4375 95.234375 142.433594 96.421875 144.988281 97.113281 C 146.53125 97.527344 147.769531 97.714844 148.699219 97.710938 C 149.800781 97.710938 150.429688 97.460938 150.765625 97.15625 C 150.9375 97 151.058594 96.824219 151.148438 96.585938 C 151.234375 96.347656 151.289062 96.046875 151.289062 95.675781 C 151.300781 94.347656 150.558594 92.238281 149.277344 89.863281 C 145.457031 82.707031 137.078125 72.960938 132.710938 68.753906 L 133.855469 67.472656 C 133.859375 67.472656 134.164062 67.722656 134.714844 68.167969 C 136.625 69.726562 141.46875 73.628906 146.203125 77.132812 C 148.566406 78.882812 150.910156 80.535156 152.824219 81.734375 C 153.78125 82.335938 154.632812 82.824219 155.3125 83.148438 C 155.65625 83.308594 155.949219 83.433594 156.183594 83.507812 C 156.414062 83.585938 156.582031 83.609375 156.632812 83.605469 L 156.640625 83.605469 L 156.691406 84.007812 L 156.398438 83.753906 C 156.5 83.636719 156.632812 83.601562 156.640625 83.605469 L 156.691406 84.007812 L 156.398438 83.753906 L 156.742188 84.054688 L 156.308594 83.917969 L 156.398438 83.753906 L 156.742188 84.054688 L 156.308594 83.917969 L 156.5 83.976562 L 156.292969 83.976562 L 156.308594 83.917969 L 156.5 83.976562 L 156.292969 83.976562 L 156.292969 83.953125 L 156.289062 83.949219 C 156.199219 83.113281 155.609375 81.65625 154.550781 80.058594 C 152.960938 77.648438 150.339844 74.855469 146.910156 72.691406 C 143.484375 70.519531 139.253906 68.972656 134.390625 68.96875 C 134.046875 68.96875 133.699219 68.976562 133.347656 68.992188 L 133.308594 68.132812 L 133.90625 68.753906 L 133.265625 69.367188 L 132.667969 68.746094 L 133.519531 68.894531 L 132.667969 68.746094 L 132.070312 68.125 L 132.710938 67.511719 L 132.945312 67.285156 L 133.265625 67.273438 C 133.644531 67.257812 134.019531 67.25 134.390625 67.25 C 141.375 67.25 147.132812 70.222656 151.191406 73.722656 C 153.226562 75.476562 154.835938 77.363281 155.988281 79.113281 C 157.140625 80.867188 157.839844 82.441406 158.003906 83.742188 L 158.003906 83.734375 L 158.023438 83.976562 C 158.023438 84.140625 157.996094 84.316406 157.929688 84.496094 C 157.839844 84.761719 157.613281 85.027344 157.359375 85.160156 C 157.101562 85.296875 156.855469 85.332031 156.632812 85.332031 C 156.246094 85.328125 155.894531 85.234375 155.503906 85.097656 C 154.777344 84.835938 153.921875 84.398438 152.933594 83.820312 C 149.492188 81.796875 144.476562 78.058594 140.289062 74.804688 C 136.101562 71.554688 132.765625 68.800781 132.761719 68.796875 L 133.308594 68.132812 L 133.910156 67.515625 C 136.914062 70.417969 141.636719 75.707031 145.640625 81.121094 C 147.644531 83.824219 149.464844 86.558594 150.796875 89.050781 C 152.128906 91.554688 152.996094 93.785156 153.015625 95.675781 C 153.015625 96.203125 152.941406 96.714844 152.761719 97.1875 C 152.503906 97.898438 151.984375 98.515625 151.277344 98.886719 C 150.566406 99.269531 149.710938 99.433594 148.699219 99.433594 C 147.546875 99.433594 146.183594 99.21875 144.539062 98.773438 C 141.714844 98.019531 139.445312 96.671875 137.65625 94.964844 C 134.976562 92.394531 133.390625 89.046875 132.472656 85.632812 C 131.546875 82.214844 131.285156 78.722656 131.285156 75.789062 C 131.285156 71.644531 131.816406 68.632812 131.820312 68.59375 L 131.871094 68.320312 L 132.070312 68.125 L 132.667969 68.746094 " fill-opacity="1" fill-rule="nonzero"/><path fill="#100f0d" d="M 130.875 66.878906 L 130.984375 67.734375 C 130.957031 67.738281 129.25 67.949219 126.648438 67.949219 C 123.058594 67.949219 117.777344 67.554688 112.84375 65.605469 C 110.378906 64.628906 107.996094 63.261719 105.980469 61.335938 C 103.964844 59.417969 102.328125 56.945312 101.363281 53.820312 C 100.746094 51.832031 100.453125 50.253906 100.445312 48.96875 C 100.453125 47.820312 100.691406 46.863281 101.292969 46.160156 C 101.59375 45.816406 101.972656 45.554688 102.386719 45.394531 C 102.800781 45.234375 103.246094 45.167969 103.703125 45.167969 C 104.625 45.171875 105.613281 45.433594 106.699219 45.851562 C 110.464844 47.34375 115.429688 50.964844 120.144531 54.917969 C 124.847656 58.863281 129.246094 63.125 131.699219 65.890625 L 131.054688 66.460938 L 130.355469 66.972656 C 130.351562 66.964844 126.625 61.878906 122.890625 56.3125 C 121.019531 53.523438 119.148438 50.625 117.734375 48.15625 C 117.03125 46.925781 116.433594 45.804688 116.007812 44.84375 C 115.792969 44.367188 115.621094 43.925781 115.496094 43.527344 C 115.378906 43.121094 115.296875 42.757812 115.289062 42.382812 C 115.296875 42.082031 115.34375 41.730469 115.605469 41.402344 C 115.730469 41.242188 115.914062 41.109375 116.097656 41.03125 C 116.289062 40.957031 116.476562 40.929688 116.652344 40.929688 C 116.757812 40.929688 116.859375 40.9375 116.960938 40.957031 C 118.21875 41.171875 119.722656 41.90625 121.378906 43.074219 C 123.851562 44.832031 126.601562 47.589844 128.761719 51.171875 C 130.917969 54.757812 132.472656 59.171875 132.472656 64.191406 C 132.472656 64.898438 132.441406 65.613281 132.375 66.347656 L 132.347656 66.667969 L 131.269531 67.703125 L 130.984375 67.734375 L 130.875 66.878906 L 130.277344 66.257812 L 130.921875 65.648438 L 131.515625 66.269531 L 130.65625 66.195312 C 130.714844 65.515625 130.746094 64.84375 130.746094 64.191406 C 130.75 57.984375 128.179688 52.738281 125.097656 48.960938 C 123.558594 47.070312 121.894531 45.550781 120.375 44.476562 C 118.871094 43.402344 117.492188 42.78125 116.679688 42.652344 L 116.652344 42.652344 L 116.652344 42.363281 L 116.757812 42.625 L 116.652344 42.652344 L 116.652344 42.363281 L 116.757812 42.625 L 116.585938 42.203125 L 116.996094 42.402344 C 116.972656 42.472656 116.855469 42.59375 116.757812 42.625 L 116.585938 42.203125 L 116.996094 42.402344 L 116.785156 42.300781 L 117.023438 42.34375 L 116.996094 42.402344 L 116.785156 42.300781 L 117.023438 42.34375 L 117.019531 42.382812 C 117.019531 42.476562 117.050781 42.714844 117.148438 43.019531 C 117.503906 44.195312 118.613281 46.304688 120.054688 48.695312 C 122.222656 52.300781 125.152344 56.625 127.535156 60.035156 C 128.726562 61.742188 129.78125 63.222656 130.535156 64.277344 C 131.292969 65.332031 131.75 65.953125 131.75 65.953125 L 130.410156 67.035156 C 127.699219 63.984375 122.382812 58.882812 117.035156 54.589844 C 114.359375 52.441406 111.667969 50.492188 109.308594 49.09375 C 108.128906 48.390625 107.027344 47.832031 106.066406 47.457031 C 105.109375 47.078125 104.289062 46.890625 103.703125 46.894531 C 103.410156 46.894531 103.183594 46.933594 103.011719 47 C 102.75 47.109375 102.59375 47.238281 102.441406 47.527344 C 102.289062 47.8125 102.175781 48.285156 102.175781 48.96875 C 102.175781 49.976562 102.425781 51.425781 103.011719 53.316406 C 103.890625 56.15625 105.355469 58.359375 107.171875 60.089844 C 109.898438 62.691406 113.453125 64.238281 116.996094 65.121094 C 120.535156 66.003906 124.054688 66.226562 126.648438 66.226562 C 127.902344 66.226562 128.941406 66.175781 129.660156 66.125 C 130.019531 66.101562 130.300781 66.074219 130.488281 66.054688 L 130.703125 66.035156 L 130.769531 66.027344 L 130.875 66.878906 L 130.277344 66.257812 L 130.875 66.878906 " fill-opacity="1" fill-rule="nonzero"/><path fill="#211c1d" d="M 135.578125 69.007812 C 135.578125 69.007812 131.222656 93.769531 147.667969 98.203125 C 166.453125 103.265625 144.488281 76.378906 136.21875 68.394531 C 136.21875 68.394531 160.59375 88.484375 160.0625 84.105469 C 159.53125 79.722656 150.296875 67.753906 136.21875 68.394531 L 135.578125 69.007812 " fill-opacity="1" fill-rule="nonzero"/><path fill="#211c1d" d="M 133.785156 67.136719 C 133.785156 67.136719 110.132812 70.089844 105.09375 53.828125 C 99.015625 34.199219 126.332031 58.132812 133.964844 66.722656 C 133.964844 66.722656 115.363281 41.347656 119.730469 42.066406 C 124.09375 42.78125 135.660156 52.5 134.425781 66.527344 L 133.785156 67.136719 " fill-opacity="1" fill-rule="nonzero"/><path fill="#100f0d" d="M 136.890625 50.132812 L 137.609375 50.828125 C 136.445312 52.03125 135.160156 54 134.203125 56.144531 C 133.238281 58.285156 132.597656 60.621094 132.601562 62.53125 C 132.601562 63.269531 132.695312 63.9375 132.882812 64.515625 C 133.070312 65.085938 133.339844 65.566406 133.714844 65.960938 C 134.125 66.382812 134.640625 66.691406 135.273438 66.90625 C 135.910156 67.117188 136.660156 67.222656 137.484375 67.222656 C 139.386719 67.222656 141.664062 66.660156 143.765625 65.796875 C 145.867188 64.941406 147.800781 63.785156 149.019531 62.710938 C 151.890625 60.199219 153.542969 57.238281 154.484375 54.414062 C 155.429688 51.589844 155.65625 48.902344 155.65625 47.011719 C 155.65625 46.175781 155.609375 45.5 155.570312 45.035156 C 155.542969 44.796875 155.523438 44.621094 155.507812 44.503906 L 155.488281 44.335938 L 156.476562 44.171875 L 156.28125 45.15625 L 156.273438 45.15625 C 156.152344 45.132812 154.78125 44.890625 152.746094 44.890625 C 150.78125 44.890625 148.191406 45.117188 145.511719 45.976562 C 142.820312 46.835938 140.039062 48.3125 137.609375 50.828125 L 136.167969 49.4375 C 138.855469 46.652344 141.957031 45.003906 144.894531 44.066406 C 147.84375 43.128906 150.625 42.882812 152.746094 42.882812 C 155.085938 42.882812 156.621094 43.179688 156.664062 43.191406 L 157.351562 43.324219 L 157.464844 44.007812 C 157.46875 44.054688 157.660156 45.203125 157.660156 47.011719 C 157.660156 49.058594 157.417969 51.953125 156.390625 55.046875 C 155.359375 58.140625 153.519531 61.4375 150.34375 64.21875 C 148.886719 65.492188 146.808594 66.714844 144.53125 67.652344 C 142.246094 68.582031 139.765625 69.21875 137.484375 69.222656 C 136.488281 69.222656 135.527344 69.101562 134.640625 68.804688 C 133.753906 68.511719 132.929688 68.035156 132.269531 67.34375 C 131.660156 66.710938 131.234375 65.949219 130.972656 65.128906 C 130.707031 64.308594 130.597656 63.433594 130.597656 62.53125 C 130.601562 60.199219 131.328125 57.65625 132.371094 55.324219 C 133.417969 52.992188 134.777344 50.882812 136.167969 49.4375 L 136.890625 50.132812 " fill-opacity="1" fill-rule="nonzero"/><path fill="#100f0d" d="M 124.085938 68.835938 L 124.582031 69.351562 C 124.082031 69.828125 123.609375 70.542969 123.277344 71.335938 C 122.945312 72.125 122.75 72.992188 122.75 73.765625 C 122.75 74.617188 122.976562 75.316406 123.429688 75.785156 C 123.910156 76.292969 124.691406 76.550781 125.632812 76.554688 C 127.144531 76.566406 128.964844 75.835938 129.914062 74.910156 C 130.703125 74.15625 131.097656 73.148438 131.097656 72.128906 C 131.097656 71.171875 130.746094 70.214844 130.027344 69.46875 C 129.269531 68.675781 128.257812 68.285156 127.246094 68.28125 C 126.285156 68.285156 125.328125 68.636719 124.582031 69.351562 L 123.589844 68.320312 C 124.613281 67.339844 125.933594 66.847656 127.246094 66.847656 C 128.632812 66.847656 130.027344 67.398438 131.0625 68.476562 C 132.042969 69.5 132.53125 70.820312 132.53125 72.128906 C 132.53125 73.519531 131.984375 74.910156 130.90625 75.945312 C 129.601562 77.171875 127.5625 77.976562 125.632812 77.988281 C 124.445312 77.988281 123.25 77.660156 122.394531 76.773438 C 121.613281 75.957031 121.316406 74.859375 121.316406 73.765625 C 121.320312 72.757812 121.558594 71.722656 121.957031 70.78125 C 122.359375 69.832031 122.910156 68.96875 123.589844 68.320312 L 124.085938 68.835938 " fill-opacity="1" fill-rule="nonzero"/><path fill="#100f0d" d="M 113.199219 71.710938 C 113.238281 71.753906 113.839844 72.398438 114.941406 73.023438 C 116.046875 73.648438 117.636719 74.257812 119.691406 74.257812 C 120.402344 74.257812 121.164062 74.1875 121.984375 74.015625 L 122.273438 75.417969 C 121.355469 75.609375 120.496094 75.691406 119.691406 75.691406 C 117.273438 75.691406 115.386719 74.945312 114.113281 74.195312 C 112.835938 73.453125 112.164062 72.703125 112.125 72.660156 L 113.199219 71.710938 " fill-opacity="1" fill-rule="nonzero"/><path fill="#100f0d" d="M 125.140625 77.308594 C 124.894531 78.289062 124.789062 79.195312 124.789062 80.023438 C 124.789062 82 125.371094 83.546875 125.953125 84.597656 C 126.242188 85.125 126.527344 85.527344 126.742188 85.796875 C 126.847656 85.929688 126.933594 86.027344 126.996094 86.089844 L 127.054688 86.160156 L 127.070312 86.171875 L 126.074219 87.199219 C 126.035156 87.164062 125.367188 86.507812 124.695312 85.289062 C 124.023438 84.070312 123.355469 82.285156 123.355469 80.023438 C 123.355469 79.078125 123.472656 78.050781 123.75 76.953125 L 125.140625 77.308594 " fill-opacity="1" fill-rule="nonzero"/><path fill="#100f0d" d="M 130.84375 66.910156 C 130.183594 67.542969 130.0625 68.480469 130.566406 69.007812 C 131.078125 69.539062 132.023438 69.449219 132.679688 68.820312 C 133.332031 68.195312 133.460938 67.257812 132.953125 66.726562 C 132.445312 66.195312 131.503906 66.277344 130.84375 66.910156 " fill-opacity="1" fill-rule="nonzero"/><path fill="#100f0d" d="M 133.34375 55.082031 C 133.453125 55.101562 135.175781 55.480469 137.417969 57.101562 C 139.660156 58.726562 142.402344 61.601562 144.539062 66.535156 L 142.695312 67.332031 C 140.691406 62.710938 138.203125 60.152344 136.238281 58.722656 C 135.257812 58.011719 134.402344 57.585938 133.8125 57.339844 C 133.515625 57.21875 133.285156 57.140625 133.128906 57.09375 L 132.964844 57.046875 L 132.933594 57.039062 L 132.957031 56.941406 L 132.9375 57.039062 L 132.933594 57.039062 L 132.957031 56.941406 L 132.9375 57.039062 L 133.34375 55.082031 " fill-opacity="1" fill-rule="nonzero"/><path fill="#100f0d" d="M 145.046875 43.878906 C 145.15625 43.902344 146.878906 44.277344 149.121094 45.902344 C 151.363281 47.523438 154.105469 50.398438 156.242188 55.332031 L 154.398438 56.125 C 152.402344 51.503906 149.90625 48.949219 147.945312 47.523438 C 146.964844 46.8125 146.113281 46.382812 145.519531 46.140625 C 145.222656 46.015625 144.992188 45.9375 144.839844 45.894531 L 144.671875 45.847656 L 144.640625 45.839844 L 144.664062 45.734375 L 144.644531 45.839844 L 144.640625 45.839844 L 144.664062 45.734375 L 144.644531 45.839844 L 145.046875 43.878906 " fill-opacity="1" fill-rule="nonzero"/><path fill="#100f0d" d="M 137.910156 47.957031 C 138.066406 47.988281 140.21875 48.464844 143.003906 50.488281 C 145.792969 52.503906 149.195312 56.074219 151.828125 62.164062 L 149.066406 63.359375 C 146.628906 57.730469 143.605469 54.636719 141.242188 52.914062 C 140.054688 52.054688 139.03125 51.546875 138.320312 51.25 C 137.964844 51.105469 137.6875 51.011719 137.511719 50.957031 L 137.320312 50.902344 L 137.289062 50.894531 L 137.488281 49.972656 L 137.296875 50.898438 L 137.289062 50.894531 L 137.488281 49.972656 L 137.296875 50.898438 L 137.910156 47.957031 " fill-opacity="1" fill-rule="nonzero"/><path fill="#100f0d" d="M 166.429688 31.039062 C 167.347656 30.214844 168.328125 29.421875 169.371094 28.664062 C 169.78125 28.363281 170.359375 28.449219 170.660156 28.859375 C 170.960938 29.273438 170.871094 29.847656 170.457031 30.148438 C 169.464844 30.878906 168.53125 31.628906 167.660156 32.410156 C 167.28125 32.75 166.695312 32.71875 166.355469 32.339844 C 166.015625 31.960938 166.050781 31.375 166.429688 31.039062 " fill-opacity="1" fill-rule="nonzero"/><g clip-path="url(#727f407ce6)"><path fill="#100f0d" d="M 175.78125 24.761719 C 177.996094 23.648438 180.328125 22.695312 182.726562 21.929688 C 183.214844 21.777344 183.730469 22.042969 183.886719 22.53125 C 184.042969 23.011719 183.773438 23.53125 183.289062 23.6875 C 180.984375 24.417969 178.738281 25.339844 176.609375 26.40625 C 176.15625 26.636719 175.601562 26.453125 175.375 26 C 175.144531 25.542969 175.328125 24.992188 175.78125 24.761719 Z M 190.054688 20.269531 C 191.632812 20.058594 193.207031 19.953125 194.773438 19.953125 C 195.71875 19.953125 196.667969 19.988281 197.605469 20.078125 C 198.109375 20.121094 198.484375 20.570312 198.441406 21.078125 C 198.394531 21.582031 197.945312 21.957031 197.4375 21.910156 C 196.558594 21.832031 195.671875 21.792969 194.773438 21.792969 C 193.296875 21.792969 191.796875 21.898438 190.296875 22.097656 C 189.792969 22.167969 189.328125 21.808594 189.261719 21.308594 C 189.195312 20.800781 189.550781 20.335938 190.054688 20.269531 Z M 205.003906 21.8125 C 207.34375 22.75 209.539062 24.078125 211.5 25.835938 C 211.882812 26.171875 211.910156 26.757812 211.574219 27.136719 C 211.230469 27.515625 210.652344 27.546875 210.265625 27.207031 C 208.46875 25.601562 206.472656 24.386719 204.316406 23.523438 C 203.84375 23.332031 203.617188 22.792969 203.804688 22.324219 C 203.996094 21.851562 204.535156 21.621094 205.003906 21.8125 Z M 216.21875 31.839844 C 217.445312 34.148438 218.226562 36.605469 218.617188 39.082031 C 218.695312 39.582031 218.347656 40.058594 217.847656 40.136719 C 217.34375 40.214844 216.871094 39.871094 216.789062 39.371094 C 216.429688 37.078125 215.714844 34.820312 214.589844 32.710938 C 214.351562 32.257812 214.519531 31.699219 214.972656 31.457031 C 215.421875 31.222656 215.984375 31.390625 216.222656 31.839844 Z M 218.671875 46.675781 C 218.308594 49.289062 217.570312 51.777344 216.527344 53.972656 C 216.308594 54.433594 215.757812 54.632812 215.296875 54.414062 C 214.835938 54.195312 214.640625 53.648438 214.859375 53.1875 C 215.8125 51.167969 216.507812 48.855469 216.84375 46.425781 C 216.914062 45.921875 217.378906 45.566406 217.882812 45.636719 C 218.390625 45.707031 218.738281 46.171875 218.671875 46.675781 Z M 211.898438 60.132812 C 210.058594 61.636719 207.890625 62.550781 205.5625 62.546875 C 205.167969 62.546875 204.773438 62.523438 204.378906 62.46875 C 203.871094 62.402344 203.515625 61.941406 203.582031 61.4375 C 203.648438 60.929688 204.113281 60.578125 204.621094 60.640625 C 204.9375 60.683594 205.253906 60.703125 205.5625 60.703125 C 207.398438 60.703125 209.140625 59.996094 210.734375 58.703125 C 211.128906 58.382812 211.710938 58.445312 212.03125 58.835938 C 212.351562 59.230469 212.292969 59.8125 211.898438 60.132812 Z M 197.484375 58.796875 L 197.46875 58.78125 C 196.5 57.84375 195.777344 56.933594 195.292969 56.023438 C 194.800781 55.117188 194.550781 54.207031 194.550781 53.324219 C 194.550781 52.601562 194.71875 51.910156 195.023438 51.277344 C 195.246094 50.816406 195.796875 50.628906 196.257812 50.84375 C 196.71875 51.066406 196.90625 51.621094 196.6875 52.078125 C 196.496094 52.484375 196.394531 52.886719 196.394531 53.324219 C 196.394531 53.859375 196.542969 54.460938 196.914062 55.152344 C 197.285156 55.84375 197.882812 56.617188 198.753906 57.457031 L 198.765625 57.46875 C 199.136719 57.824219 199.144531 58.40625 198.789062 58.773438 C 198.4375 59.140625 197.851562 59.148438 197.484375 58.796875 Z M 201.375 46.617188 C 203.527344 45.820312 206.03125 45.214844 208.683594 44.789062 C 209.1875 44.707031 209.660156 45.054688 209.742188 45.554688 C 209.824219 46.058594 209.480469 46.53125 208.976562 46.609375 C 206.414062 47.019531 204.015625 47.605469 202.015625 48.347656 C 201.539062 48.523438 201.007812 48.28125 200.832031 47.804688 C 200.652344 47.324219 200.894531 46.796875 201.375 46.617188 Z M 216.132812 44.085938 C 216.835938 44.0625 217.539062 44.050781 218.238281 44.050781 C 220.097656 44.050781 221.910156 44.136719 223.609375 44.308594 C 224.117188 44.359375 224.488281 44.8125 224.433594 45.316406 C 224.382812 45.824219 223.933594 46.195312 223.421875 46.140625 C 221.792969 45.976562 220.039062 45.894531 218.238281 45.894531 C 217.5625 45.894531 216.878906 45.90625 216.195312 45.925781 C 215.683594 45.945312 215.257812 45.546875 215.238281 45.039062 C 215.222656 44.53125 215.621094 44.101562 216.132812 44.085938 Z M 231.042969 45.988281 L 231.164062 46.046875 C 233.492188 47.085938 235.570312 48.503906 237.402344 50.195312 C 237.777344 50.539062 237.800781 51.121094 237.457031 51.496094 C 237.113281 51.871094 236.527344 51.894531 236.152344 51.550781 C 234.449219 49.980469 232.542969 48.683594 230.40625 47.726562 L 230.304688 47.679688 C 229.839844 47.476562 229.625 46.933594 229.824219 46.464844 C 230.03125 46 230.574219 45.785156 231.042969 45.988281 Z M 242.21875 56.039062 C 243.535156 58.128906 244.652344 60.390625 245.582031 62.765625 C 245.765625 63.238281 245.53125 63.773438 245.058594 63.960938 C 244.582031 64.144531 244.046875 63.910156 243.863281 63.4375 C 242.972656 61.15625 241.902344 59 240.65625 57.027344 C 240.382812 56.597656 240.511719 56.027344 240.945312 55.757812 C 241.371094 55.484375 241.945312 55.613281 242.21875 56.039062 Z M 247.773438 69.921875 C 248.335938 72.351562 248.742188 74.828125 249 77.285156 C 249.054688 77.789062 248.6875 78.246094 248.179688 78.300781 C 247.671875 78.351562 247.214844 77.984375 247.164062 77.476562 C 246.910156 75.089844 246.519531 72.691406 245.976562 70.335938 C 245.859375 69.839844 246.167969 69.34375 246.664062 69.230469 C 247.164062 69.113281 247.65625 69.421875 247.773438 69.921875 Z M 249.355469 84.734375 C 249.332031 87.339844 249.140625 89.851562 248.808594 92.183594 C 248.734375 92.6875 248.261719 93.039062 247.761719 92.96875 C 247.257812 92.894531 246.90625 92.429688 246.976562 91.921875 C 247.296875 89.675781 247.484375 87.246094 247.507812 84.714844 C 247.511719 84.207031 247.933594 83.796875 248.445312 83.804688 C 248.949219 83.808594 249.359375 84.222656 249.355469 84.734375 Z M 247.382812 99.472656 C 246.792969 102.070312 246.207031 104.425781 245.761719 106.621094 C 245.660156 107.117188 245.171875 107.441406 244.671875 107.339844 C 244.171875 107.238281 243.847656 106.753906 243.953125 106.253906 C 244.410156 104.003906 244.996094 101.640625 245.582031 99.0625 C 245.691406 98.566406 246.1875 98.257812 246.683594 98.367188 C 247.179688 98.480469 247.492188 98.972656 247.382812 99.472656 Z M 244.945312 113.714844 C 244.984375 115.984375 245.386719 118.1875 246.367188 120.515625 C 246.566406 120.988281 246.347656 121.527344 245.875 121.722656 C 245.40625 121.921875 244.863281 121.703125 244.664062 121.234375 C 243.589844 118.683594 243.136719 116.214844 243.097656 113.742188 C 243.09375 113.230469 243.5 112.8125 244.011719 112.804688 C 244.519531 112.796875 244.941406 113.203125 244.945312 113.714844 Z M 250.066406 126.550781 C 250.878906 127.578125 251.8125 128.640625 252.871094 129.746094 C 253.5625 130.472656 254.265625 131.167969 254.980469 131.835938 C 255.351562 132.1875 255.367188 132.773438 255.019531 133.140625 C 254.671875 133.511719 254.085938 133.527344 253.714844 133.179688 C 252.976562 132.488281 252.253906 131.765625 251.535156 131.023438 C 250.441406 129.878906 249.472656 128.773438 248.621094 127.695312 C 248.304688 127.296875 248.375 126.722656 248.769531 126.402344 C 249.167969 126.085938 249.75 126.152344 250.066406 126.550781 Z M 260.578125 136.398438 C 262.578125 137.800781 264.652344 139.019531 266.78125 140.054688 C 267.238281 140.277344 267.433594 140.828125 267.210938 141.285156 C 266.988281 141.742188 266.4375 141.933594 265.976562 141.710938 C 263.753906 140.632812 261.597656 139.367188 259.515625 137.910156 C 259.097656 137.617188 259 137.039062 259.289062 136.625 C 259.582031 136.203125 260.15625 136.105469 260.578125 136.398438 Z M 273.5 142.628906 C 275.796875 143.292969 278.148438 143.757812 280.550781 144.023438 C 281.058594 144.074219 281.425781 144.53125 281.371094 145.039062 C 281.3125 145.542969 280.859375 145.910156 280.351562 145.851562 C 277.84375 145.582031 275.386719 145.097656 272.984375 144.40625 C 272.496094 144.261719 272.214844 143.75 272.355469 143.261719 C 272.5 142.769531 273.007812 142.492188 273.5 142.628906 Z M 287.75 144.203125 C 290.097656 144.066406 292.484375 143.75 294.898438 143.242188 C 295.398438 143.136719 295.890625 143.457031 295.992188 143.957031 C 296.097656 144.453125 295.777344 144.945312 295.277344 145.046875 C 292.777344 145.574219 290.296875 145.902344 287.851562 146.042969 C 287.347656 146.070312 286.910156 145.683594 286.878906 145.175781 C 286.851562 144.667969 287.238281 144.230469 287.75 144.203125 Z M 301.824219 141.238281 C 304.007812 140.40625 306.238281 139.386719 308.5 138.320312 C 308.960938 138.101562 309.511719 138.300781 309.726562 138.761719 C 309.945312 139.222656 309.75 139.769531 309.285156 139.988281 C 307.011719 141.058594 304.746094 142.097656 302.484375 142.964844 C 302.003906 143.144531 301.472656 142.90625 301.292969 142.429688 C 301.109375 141.957031 301.34375 141.421875 301.824219 141.238281 Z M 315.214844 135.226562 C 317.53125 134.230469 319.886719 133.335938 322.269531 132.703125 C 322.761719 132.570312 323.265625 132.863281 323.398438 133.351562 C 323.527344 133.847656 323.234375 134.351562 322.742188 134.484375 C 320.484375 135.082031 318.214844 135.941406 315.945312 136.921875 C 315.480469 137.121094 314.9375 136.90625 314.734375 136.4375 C 314.53125 135.96875 314.746094 135.425781 315.214844 135.226562 Z M 329.8125 131.75 L 330.023438 131.757812 C 332.65625 131.878906 335.070312 132.523438 337.273438 133.550781 C 337.734375 133.765625 337.9375 134.316406 337.71875 134.777344 C 337.503906 135.238281 336.953125 135.4375 336.492188 135.222656 C 334.488281 134.289062 332.324219 133.710938 329.9375 133.601562 L 329.746094 133.59375 C 329.234375 133.574219 328.839844 133.152344 328.855469 132.640625 C 328.875 132.128906 329.300781 131.734375 329.8125 131.75 Z M 343.550781 137.839844 C 345.386719 139.515625 347.054688 141.414062 348.597656 143.394531 C 348.910156 143.800781 348.839844 144.378906 348.4375 144.6875 C 348.035156 145 347.457031 144.929688 347.140625 144.527344 C 345.640625 142.605469 344.039062 140.78125 342.308594 139.203125 C 341.933594 138.859375 341.902344 138.273438 342.25 137.902344 C 342.59375 137.527344 343.175781 137.496094 343.550781 137.839844 " fill-opacity="1" fill-rule="nonzero"/></g><g clip-path="url(#92f9fcec9e)"><path fill="#100f0d" d="M 352.980469 149.558594 C 353.679688 150.601562 354.359375 151.636719 355.019531 152.628906 C 355.304688 153.058594 355.191406 153.628906 354.761719 153.910156 C 354.339844 154.191406 353.765625 154.078125 353.484375 153.648438 C 352.816406 152.648438 352.140625 151.621094 351.445312 150.578125 C 351.160156 150.15625 351.273438 149.582031 351.699219 149.300781 C 352.125 149.019531 352.695312 149.132812 352.980469 149.558594 " fill-opacity="1" fill-rule="nonzero"/></g><g clip-path="url(#dbcbc12386)"><g clip-path="url(#d8ccca1ec1)"><g clip-path="url(#6fb6e77c42)"><path fill="#fbcb1c" d="M 297.757812 270.824219 C 300.652344 266.40625 309.019531 260.390625 313.542969 263.105469 C 318.074219 265.824219 316.667969 276.027344 314.15625 280.667969 C 308.4375 291.21875 296.234375 291.941406 296.234375 291.941406 C 296.234375 291.941406 291.273438 280.714844 297.757812 270.824219 " fill-opacity="1" fill-rule="nonzero"/></g></g></g><g clip-path="url(#066d2004f0)"><g clip-path="url(#5bf674c062)"><g clip-path="url(#f12d5b98f9)"><path fill="#100f0d" d="M 318.195312 262.652344 L 318.539062 263.476562 L 318.617188 263.445312 C 318.785156 263.375 319.210938 263.207031 319.839844 262.984375 C 322.371094 262.078125 328.257812 260.277344 334.273438 260.339844 C 337.28125 260.371094 340.308594 260.863281 342.976562 262.125 C 345.648438 263.390625 347.972656 265.394531 349.652344 268.566406 C 350.152344 269.503906 350.523438 270.339844 350.78125 271.0625 C 351.285156 272.46875 351.335938 273.453125 351.167969 274.023438 C 351.085938 274.316406 350.960938 274.519531 350.789062 274.695312 C 350.613281 274.867188 350.375 275.019531 350.042969 275.136719 C 349.46875 275.34375 348.617188 275.429688 347.578125 275.355469 C 345.753906 275.238281 343.367188 274.652344 340.75 273.769531 C 332.894531 271.113281 322.933594 265.78125 318.214844 262.691406 L 317.179688 264.144531 C 317.179688 264.144531 317.496094 264.386719 318.054688 264.824219 C 320.011719 266.355469 324.933594 270.238281 329.5 274.148438 C 331.78125 276.105469 333.976562 278.066406 335.660156 279.734375 C 336.503906 280.566406 337.214844 281.328125 337.742188 281.960938 C 338.003906 282.277344 338.214844 282.5625 338.375 282.800781 C 338.53125 283.042969 338.628906 283.238281 338.667969 283.34375 L 338.683594 283.402344 L 338.6875 283.421875 L 338.917969 283.390625 L 338.691406 283.355469 L 338.6875 283.421875 L 338.917969 283.390625 L 338.691406 283.355469 L 339.175781 283.425781 L 338.808594 283.109375 C 338.738281 283.1875 338.695312 283.296875 338.691406 283.355469 L 339.175781 283.425781 L 338.808594 283.109375 L 339.113281 283.371094 L 338.976562 282.988281 C 338.953125 282.996094 338.875 283.03125 338.808594 283.109375 L 339.113281 283.371094 L 338.976562 282.988281 L 339.019531 283.105469 L 338.984375 282.984375 L 338.976562 282.988281 L 339.019531 283.105469 L 338.984375 282.984375 L 338.953125 282.988281 C 338.554688 283.03125 337.988281 283.003906 337.3125 282.886719 C 334.945312 282.476562 331.339844 280.964844 327.945312 278.316406 C 324.542969 275.667969 321.335938 271.90625 319.589844 266.992188 C 319.171875 265.820312 318.839844 264.585938 318.601562 263.277344 L 317.722656 263.4375 L 318.492188 263.894531 L 318.957031 263.113281 L 318.195312 262.652344 L 318.539062 263.476562 L 318.195312 262.652344 L 317.429688 262.195312 L 316.785156 263.265625 L 316.847656 263.597656 C 317.101562 265 317.460938 266.332031 317.90625 267.589844 C 320.0625 273.644531 324.246094 278.035156 328.40625 280.859375 C 330.492188 282.269531 332.570312 283.296875 334.425781 283.945312 C 335.347656 284.273438 336.21875 284.503906 337.007812 284.644531 C 337.796875 284.78125 338.503906 284.828125 339.136719 284.765625 C 339.28125 284.75 339.425781 284.722656 339.574219 284.667969 C 339.75 284.605469 339.933594 284.503906 340.089844 284.347656 C 340.332031 284.117188 340.457031 283.773438 340.46875 283.492188 C 340.484375 283.210938 340.425781 282.972656 340.351562 282.746094 C 340.21875 282.386719 340.023438 282.050781 339.773438 281.6875 C 339.304688 281.003906 338.632812 280.230469 337.800781 279.363281 C 334.894531 276.332031 330.03125 272.199219 325.871094 268.789062 C 321.714844 265.386719 318.273438 262.734375 318.269531 262.730469 L 317.722656 263.4375 L 317.234375 264.183594 C 320.953125 266.613281 327.625 270.289062 334.171875 273.117188 C 337.445312 274.535156 340.683594 275.734375 343.523438 276.457031 C 344.945312 276.816406 346.265625 277.054688 347.457031 277.136719 C 348.648438 277.214844 349.714844 277.144531 350.640625 276.820312 C 351.167969 276.632812 351.65625 276.351562 352.046875 275.957031 C 352.644531 275.371094 352.980469 274.542969 353.03125 273.621094 C 353.082031 272.699219 352.886719 271.664062 352.460938 270.46875 C 352.167969 269.640625 351.757812 268.730469 351.230469 267.730469 C 349.378906 264.222656 346.71875 261.910156 343.738281 260.511719 C 339.269531 258.40625 334.128906 258.285156 329.621094 258.828125 C 325.117188 259.375 321.222656 260.597656 319.242188 261.304688 C 318.367188 261.617188 317.863281 261.824219 317.847656 261.832031 L 317.578125 261.945312 L 317.429688 262.195312 L 318.195312 262.652344 " fill-opacity="1" fill-rule="nonzero"/></g></g></g><g clip-path="url(#2b213d2be9)"><g clip-path="url(#9e3f58844a)"><g clip-path="url(#7eb5e6beab)"><path fill="#100f0d" d="M 315.898438 261.277344 L 316.789062 261.1875 C 316.78125 261.140625 316.335938 256.675781 314.457031 251.390625 C 313.175781 247.796875 311.234375 243.8125 308.265625 240.585938 C 305.300781 237.367188 301.261719 234.90625 295.957031 234.507812 C 293.335938 234.3125 291.4375 234.441406 290.050781 234.929688 C 289.539062 235.113281 289.09375 235.347656 288.722656 235.65625 C 288.164062 236.109375 287.796875 236.75 287.691406 237.425781 C 287.582031 238.105469 287.699219 238.792969 287.941406 239.480469 C 288.265625 240.390625 288.824219 241.324219 289.554688 242.3125 C 290.835938 244.03125 292.65625 245.894531 294.777344 247.804688 C 301.144531 253.535156 310.203125 259.644531 315.089844 262.332031 L 315.519531 261.546875 L 315.875 260.730469 C 315.867188 260.726562 309.722656 258.066406 303.144531 255.546875 C 299.855469 254.285156 296.464844 253.0625 293.660156 252.21875 C 292.253906 251.796875 291.003906 251.472656 289.960938 251.28125 C 289.4375 251.1875 288.972656 251.128906 288.546875 251.109375 C 288.125 251.097656 287.746094 251.117188 287.359375 251.25 C 287.207031 251.304688 287.050781 251.382812 286.898438 251.5 C 286.671875 251.671875 286.476562 251.96875 286.425781 252.277344 C 286.367188 252.585938 286.421875 252.863281 286.503906 253.097656 L 286.539062 253.1875 C 286.804688 253.835938 287.234375 254.503906 287.804688 255.210938 C 289.804688 257.65625 293.597656 260.539062 298.5 262.371094 C 303.390625 264.195312 309.410156 264.933594 315.703125 262.910156 L 316.023438 262.804688 L 316.816406 261.480469 L 316.789062 261.1875 L 315.898438 261.277344 L 315.132812 260.816406 L 314.664062 261.601562 L 315.429688 262.058594 L 315.15625 261.207031 C 308.476562 263.359375 302.128906 262.164062 297.214844 259.90625 C 294.757812 258.777344 292.671875 257.382812 291.109375 256.03125 C 290.328125 255.355469 289.683594 254.691406 289.1875 254.085938 C 288.695312 253.480469 288.359375 252.925781 288.191406 252.515625 L 288.195312 252.519531 L 288.183594 252.488281 L 288.109375 252.511719 L 288.183594 252.5 L 288.183594 252.488281 L 288.109375 252.511719 L 288.183594 252.5 L 287.746094 252.558594 L 288.097656 252.804688 C 288.179688 252.691406 288.195312 252.53125 288.183594 252.5 L 287.746094 252.558594 L 288.097656 252.804688 L 287.746094 252.558594 L 287.988281 252.914062 L 288.097656 252.804688 L 287.746094 252.558594 L 287.988281 252.914062 L 287.855469 252.714844 L 287.960938 252.929688 L 287.988281 252.914062 L 287.855469 252.714844 L 287.960938 252.929688 L 287.921875 252.851562 L 287.953125 252.929688 L 287.960938 252.929688 L 287.921875 252.851562 L 287.953125 252.929688 L 287.957031 252.929688 C 287.980469 252.917969 288.183594 252.882812 288.480469 252.894531 C 289.046875 252.914062 289.9375 253.070312 291.015625 253.335938 C 294.800781 254.273438 300.871094 256.539062 305.957031 258.5625 C 308.5 259.574219 310.804688 260.523438 312.46875 261.222656 C 313.304688 261.574219 313.980469 261.859375 314.445312 262.058594 C 314.910156 262.257812 315.167969 262.367188 315.167969 262.367188 L 315.949219 260.765625 C 312.355469 258.792969 306.238281 254.777344 300.792969 250.507812 C 298.070312 248.371094 295.507812 246.164062 293.507812 244.128906 C 292.511719 243.113281 291.652344 242.140625 290.988281 241.242188 C 290.320312 240.355469 289.855469 239.539062 289.625 238.882812 C 289.503906 238.554688 289.445312 238.261719 289.433594 238.03125 C 289.425781 237.671875 289.492188 237.457031 289.648438 237.246094 C 289.808594 237.035156 290.105469 236.800781 290.648438 236.609375 C 291.621094 236.257812 293.335938 236.09375 295.820312 236.285156 C 300.640625 236.660156 304.210938 238.832031 306.953125 241.796875 C 309.691406 244.761719 311.550781 248.535156 312.777344 251.988281 C 313.679688 254.523438 314.238281 256.878906 314.574219 258.59375 C 314.742188 259.453125 314.851562 260.152344 314.917969 260.632812 C 314.953125 260.871094 314.976562 261.058594 314.992188 261.183594 L 315.007812 261.324219 L 315.011719 261.363281 L 315.898438 261.277344 L 315.132812 260.816406 L 315.898438 261.277344 " fill-opacity="1" fill-rule="nonzero"/></g></g></g><g clip-path="url(#f6596cd14e)"><g clip-path="url(#e061fbbbb1)"><g clip-path="url(#6dae806b1e)"><path fill="#100f0d" d="M 300.367188 271.179688 L 301.238281 271.75 C 302.085938 270.445312 303.535156 268.902344 305.230469 267.546875 C 306.921875 266.191406 308.867188 265.015625 310.683594 264.371094 C 311.675781 264.015625 312.625 263.820312 313.460938 263.820312 C 314.296875 263.8125 315.011719 263.984375 315.621094 264.347656 C 316.03125 264.597656 316.386719 264.925781 316.695312 265.34375 C 317.003906 265.761719 317.261719 266.269531 317.472656 266.851562 C 318.136719 268.710938 318.21875 271.332031 317.859375 273.878906 C 317.511719 276.425781 316.730469 278.914062 315.851562 280.527344 C 314.382812 283.238281 312.472656 285.253906 310.453125 286.773438 C 308.429688 288.292969 306.296875 289.308594 304.410156 289.980469 C 302.804688 290.550781 301.382812 290.871094 300.367188 291.050781 C 299.859375 291.140625 299.457031 291.191406 299.179688 291.222656 C 299.042969 291.238281 298.9375 291.246094 298.871094 291.253906 L 298.796875 291.261719 L 298.78125 291.261719 L 298.84375 292.296875 L 299.789062 291.875 L 299.785156 291.871094 C 299.765625 291.828125 299.65625 291.5625 299.5 291.121094 C 299.03125 289.808594 298.164062 286.90625 298.074219 283.371094 C 297.984375 279.828125 298.660156 275.675781 301.234375 271.75 L 299.503906 270.609375 C 296.640625 274.972656 295.898438 279.582031 296.003906 283.421875 C 296.101562 287.265625 297.027344 290.359375 297.546875 291.816406 C 297.746094 292.378906 297.882812 292.695312 297.894531 292.714844 L 298.1875 293.371094 L 298.902344 293.328125 C 298.96875 293.324219 301.632812 293.164062 305.101562 291.933594 C 307.144531 291.207031 309.46875 290.105469 311.695312 288.429688 C 313.921875 286.757812 316.050781 284.511719 317.675781 281.515625 C 318.710938 279.589844 319.523438 276.9375 319.910156 274.164062 C 320.292969 271.394531 320.257812 268.519531 319.425781 266.15625 C 319.160156 265.417969 318.816406 264.726562 318.363281 264.113281 C 317.914062 263.503906 317.351562 262.972656 316.683594 262.570312 C 315.699219 261.980469 314.574219 261.734375 313.441406 261.746094 C 312.304688 261.753906 311.144531 262.007812 309.988281 262.414062 C 307.875 263.171875 305.773438 264.457031 303.933594 265.929688 C 302.09375 267.40625 300.523438 269.054688 299.5 270.609375 L 300.367188 271.179688 " fill-opacity="1" fill-rule="nonzero"/></g></g></g><g clip-path="url(#b551e49b5a)"><g clip-path="url(#c7527f2487)"><g clip-path="url(#5bc143334f)"><path fill="#100f0d" d="M 316.320312 253.976562 L 316.957031 254.359375 C 317.589844 253.285156 318.984375 252.164062 320.375 251.679688 C 320.910156 251.488281 321.445312 251.386719 321.925781 251.394531 C 322.402344 251.398438 322.824219 251.507812 323.1875 251.722656 C 323.683594 252.019531 324.066406 252.535156 324.3125 253.226562 C 324.589844 254.003906 324.675781 254.984375 324.570312 255.933594 C 324.472656 256.882812 324.183594 257.804688 323.785156 258.457031 C 323.289062 259.285156 322.546875 259.863281 321.707031 260.160156 C 320.621094 260.546875 319.386719 260.464844 318.324219 259.824219 C 317.496094 259.328125 316.917969 258.585938 316.617188 257.746094 C 316.234375 256.660156 316.316406 255.421875 316.957031 254.359375 L 316.320312 253.976562 L 315.6875 253.59375 C 314.808594 255.054688 314.695312 256.757812 315.222656 258.242188 C 315.632812 259.394531 316.429688 260.417969 317.558594 261.09375 C 319.015625 261.972656 320.722656 262.085938 322.207031 261.558594 C 323.355469 261.148438 324.378906 260.351562 325.054688 259.222656 C 325.59375 258.328125 325.921875 257.226562 326.046875 256.089844 C 326.167969 254.953125 326.078125 253.777344 325.707031 252.730469 C 325.382812 251.808594 324.816406 250.972656 323.949219 250.449219 C 323.328125 250.078125 322.632812 249.917969 321.941406 249.910156 C 321.25 249.902344 320.550781 250.042969 319.878906 250.285156 C 318.152344 250.90625 316.5625 252.152344 315.6875 253.59375 L 316.320312 253.976562 " fill-opacity="1" fill-rule="nonzero"/></g></g></g><g clip-path="url(#6013de1d4d)"><g clip-path="url(#4f77b11d07)"><g clip-path="url(#76913f8537)"><path fill="#100f0d" d="M 316.726562 242.335938 L 316.746094 242.300781 L 316.726562 242.335938 L 316.746094 242.300781 L 316.726562 242.335938 C 316.765625 242.359375 317.40625 242.734375 318.179688 243.507812 C 318.953125 244.289062 319.855469 245.46875 320.445312 247.117188 C 320.800781 248.117188 321.039062 249.292969 321.066406 250.667969 L 322.546875 250.640625 C 322.519531 249.105469 322.246094 247.769531 321.839844 246.621094 C 321.144531 244.667969 320.058594 243.277344 319.144531 242.378906 C 318.230469 241.480469 317.484375 241.0625 317.441406 241.039062 L 316.726562 242.335938 " fill-opacity="1" fill-rule="nonzero"/></g></g></g><g clip-path="url(#6948d324cf)"><g clip-path="url(#b84d5a7542)"><g clip-path="url(#11259f8f72)"><path fill="#100f0d" d="M 325.109375 253.097656 C 325.601562 252.847656 326.078125 252.644531 326.539062 252.480469 C 328.871094 251.652344 330.863281 251.796875 332.289062 252.144531 C 333 252.316406 333.5625 252.542969 333.949219 252.71875 C 334.140625 252.808594 334.285156 252.886719 334.378906 252.9375 L 334.480469 253 L 334.503906 253.011719 L 335.3125 251.769531 C 335.261719 251.738281 334.28125 251.105469 332.636719 250.703125 C 331 250.300781 328.679688 250.144531 326.039062 251.082031 C 325.519531 251.269531 324.984375 251.5 324.4375 251.777344 L 325.109375 253.097656 " fill-opacity="1" fill-rule="nonzero"/></g></g></g><g clip-path="url(#39196bab5d)"><g clip-path="url(#2f6ef8d378)"><g clip-path="url(#20a9d616bc)"><path fill="#100f0d" d="M 315.921875 261.238281 C 316.410156 260.429688 317.328125 260.085938 317.976562 260.476562 C 318.625 260.867188 318.757812 261.839844 318.273438 262.648438 C 317.789062 263.453125 316.871094 263.792969 316.21875 263.402344 C 315.570312 263.011719 315.4375 262.042969 315.921875 261.238281 " fill-opacity="1" fill-rule="nonzero"/></g></g></g><g clip-path="url(#764d803b31)"><g clip-path="url(#8145eebaea)"><g clip-path="url(#288c71d00e)"><path fill="#100f0d" d="M 304.554688 266.46875 C 304.601562 266.570312 305.375 268.222656 307.53125 270.113281 C 309.679688 272 313.214844 274.109375 318.683594 275.128906 L 319.0625 273.089844 C 313.9375 272.128906 310.785156 270.203125 308.894531 268.550781 C 307.953125 267.726562 307.328125 266.964844 306.945312 266.421875 C 306.753906 266.152344 306.621094 265.933594 306.539062 265.792969 C 306.5 265.71875 306.472656 265.667969 306.457031 265.636719 L 306.4375 265.605469 L 306.4375 265.601562 L 305.925781 265.84375 L 306.441406 265.609375 L 306.4375 265.601562 L 305.925781 265.84375 L 306.441406 265.609375 L 304.554688 266.46875 " fill-opacity="1" fill-rule="nonzero"/></g></g></g><g clip-path="url(#15b278f8d0)"><g clip-path="url(#3e675ec4f1)"><g clip-path="url(#7b49b5780a)"><path fill="#100f0d" d="M 295.925781 280.84375 C 295.972656 280.945312 296.746094 282.597656 298.902344 284.484375 C 301.054688 286.375 304.585938 288.480469 310.054688 289.5 L 310.433594 287.464844 C 305.3125 286.503906 302.15625 284.578125 300.265625 282.925781 C 299.324219 282.097656 298.699219 281.339844 298.316406 280.796875 C 298.125 280.527344 297.988281 280.308594 297.910156 280.167969 C 297.871094 280.097656 297.84375 280.042969 297.828125 280.011719 L 297.808594 279.980469 L 297.808594 279.976562 L 297.296875 280.21875 L 297.8125 279.984375 L 297.808594 279.976562 L 297.296875 280.21875 L 297.8125 279.984375 L 295.925781 280.84375 " fill-opacity="1" fill-rule="nonzero"/></g></g></g><g clip-path="url(#d3f77e065c)"><g clip-path="url(#30fe0429aa)"><g clip-path="url(#638e06c797)"><path fill="#100f0d" d="M 298.40625 272.703125 C 298.476562 272.855469 299.449219 274.917969 302.128906 277.265625 C 304.804688 279.613281 309.183594 282.222656 315.941406 283.484375 L 316.511719 280.425781 C 310.277344 279.257812 306.457031 276.921875 304.175781 274.925781 C 303.039062 273.929688 302.285156 273.011719 301.824219 272.363281 C 301.597656 272.039062 301.441406 271.78125 301.34375 271.617188 C 301.296875 271.53125 301.265625 271.472656 301.25 271.433594 L 301.230469 271.402344 L 300.347656 271.816406 L 301.234375 271.410156 L 301.230469 271.402344 L 300.347656 271.816406 L 301.234375 271.410156 L 298.40625 272.703125 " fill-opacity="1" fill-rule="nonzero"/></g></g></g><g clip-path="url(#d6c4b3cfa0)"><g clip-path="url(#c6d4c6ec06)"><g clip-path="url(#d7f5d980c8)"><path fill="#100f0d" d="M 290.375 300.808594 C 290.597656 302.757812 290.523438 304.691406 290.203125 306.578125 C 290.132812 306.988281 290.40625 307.375 290.816406 307.445312 C 291.226562 307.515625 291.613281 307.238281 291.683594 306.832031 C 292.027344 304.8125 292.101562 302.734375 291.867188 300.640625 C 291.820312 300.226562 291.449219 299.933594 291.035156 299.976562 C 290.625 300.027344 290.328125 300.398438 290.375 300.808594 Z M 288.492188 312.117188 C 287.699219 313.875 286.691406 315.550781 285.511719 317.117188 C 285.261719 317.449219 285.328125 317.921875 285.65625 318.167969 C 285.988281 318.421875 286.460938 318.355469 286.707031 318.023438 C 287.957031 316.371094 289.019531 314.597656 289.863281 312.734375 C 290.03125 312.355469 289.863281 311.910156 289.484375 311.742188 C 289.105469 311.570312 288.664062 311.738281 288.492188 312.117188 Z M 281.535156 321.398438 C 280.070312 322.691406 278.472656 323.835938 276.785156 324.8125 C 276.429688 325.019531 276.304688 325.476562 276.511719 325.839844 C 276.71875 326.195312 277.179688 326.320312 277.539062 326.109375 C 279.3125 325.089844 280.988281 323.878906 282.527344 322.527344 C 282.835938 322.253906 282.867188 321.777344 282.59375 321.46875 C 282.320312 321.152344 281.84375 321.125 281.535156 321.398438 Z M 271.460938 327.195312 C 269.597656 327.796875 267.683594 328.191406 265.757812 328.339844 C 265.34375 328.375 265.035156 328.734375 265.070312 329.148438 C 265.101562 329.5625 265.460938 329.871094 265.875 329.835938 C 267.925781 329.675781 269.957031 329.261719 271.921875 328.625 C 272.316406 328.496094 272.535156 328.070312 272.40625 327.675781 C 272.277344 327.28125 271.851562 327.066406 271.460938 327.195312 Z M 260.007812 328.023438 C 258.15625 327.605469 256.441406 326.769531 254.890625 325.628906 C 254.554688 325.382812 254.085938 325.457031 253.839844 325.789062 C 253.59375 326.121094 253.667969 326.59375 254 326.839844 C 255.695312 328.085938 257.597656 329.019531 259.675781 329.488281 C 260.082031 329.578125 260.484375 329.324219 260.574219 328.917969 C 260.664062 328.515625 260.410156 328.113281 260.007812 328.023438 Z M 250.847656 321.53125 C 249.6875 319.960938 248.726562 318.230469 247.996094 316.46875 C 247.839844 316.085938 247.398438 315.902344 247.015625 316.0625 C 246.632812 316.21875 246.449219 316.65625 246.609375 317.042969 C 247.382812 318.914062 248.402344 320.746094 249.636719 322.421875 C 249.886719 322.753906 250.355469 322.824219 250.6875 322.582031 C 251.023438 322.332031 251.089844 321.863281 250.847656 321.53125 Z M 246.480469 310.882812 C 246.214844 308.742188 246.378906 306.796875 246.976562 305.339844 C 247.128906 304.957031 246.941406 304.515625 246.558594 304.363281 C 246.175781 304.207031 245.738281 304.390625 245.582031 304.773438 C 244.859375 306.566406 244.707031 308.746094 244.988281 311.066406 C 245.042969 311.476562 245.417969 311.769531 245.828125 311.722656 C 246.238281 311.667969 246.53125 311.292969 246.480469 310.882812 Z M 250.859375 302.320312 C 251.6875 302.226562 252.671875 302.289062 253.816406 302.554688 C 254.761719 302.777344 255.585938 303.058594 256.292969 303.378906 C 256.667969 303.554688 257.117188 303.390625 257.289062 303.011719 C 257.460938 302.636719 257.296875 302.191406 256.917969 302.015625 C 256.105469 301.644531 255.1875 301.335938 254.15625 301.09375 C 252.878906 300.796875 251.726562 300.710938 250.691406 300.828125 C 250.277344 300.878906 249.980469 301.25 250.027344 301.660156 C 250.078125 302.074219 250.449219 302.371094 250.859375 302.320312 Z M 259.902344 307.148438 C 260.394531 308.675781 260.304688 310.550781 259.722656 312.625 C 259.613281 313.023438 259.847656 313.4375 260.246094 313.550781 C 260.648438 313.660156 261.0625 313.425781 261.171875 313.027344 C 261.796875 310.777344 261.945312 308.613281 261.332031 306.6875 C 261.203125 306.292969 260.78125 306.078125 260.386719 306.203125 C 259.992188 306.332031 259.777344 306.753906 259.902344 307.148438 Z M 257.457031 317.992188 C 256.554688 319.65625 255.472656 321.347656 254.296875 322.996094 C 254.054688 323.332031 254.132812 323.800781 254.46875 324.042969 C 254.808594 324.28125 255.277344 324.203125 255.519531 323.867188 C 256.722656 322.175781 257.835938 320.441406 258.777344 318.710938 C 258.976562 318.347656 258.839844 317.890625 258.476562 317.691406 C 258.113281 317.496094 257.660156 317.628906 257.457031 317.992188 Z M 250.628906 327.675781 C 249.273438 329.273438 247.894531 330.753906 246.59375 332.054688 C 246.300781 332.347656 246.300781 332.820312 246.59375 333.113281 C 246.886719 333.40625 247.363281 333.40625 247.65625 333.113281 C 248.984375 331.785156 250.386719 330.277344 251.773438 328.652344 C 252.042969 328.335938 252.003906 327.859375 251.6875 327.589844 C 251.371094 327.320312 250.898438 327.363281 250.628906 327.675781 Z M 242.183594 335.984375 C 241.683594 336.363281 241.242188 336.660156 240.890625 336.859375 C 239.644531 337.566406 238.375 338.214844 237.078125 338.808594 C 236.699219 338.980469 236.535156 339.425781 236.707031 339.804688 C 236.878906 340.179688 237.324219 340.347656 237.699219 340.171875 C 239.035156 339.5625 240.347656 338.894531 241.632812 338.164062 C 242.066406 337.917969 242.550781 337.589844 243.089844 337.183594 C 243.417969 336.933594 243.484375 336.464844 243.234375 336.132812 C 242.984375 335.804688 242.515625 335.738281 242.183594 335.984375 Z M 231.558594 340.925781 C 229.667969 341.523438 227.75 342 225.828125 342.347656 C 225.417969 342.421875 225.148438 342.8125 225.222656 343.222656 C 225.296875 343.628906 225.6875 343.898438 226.09375 343.824219 C 228.082031 343.464844 230.058594 342.976562 232.011719 342.359375 C 232.40625 342.234375 232.625 341.8125 232.503906 341.417969 C 232.375 341.023438 231.957031 340.804688 231.558594 340.925781 Z M 219.964844 343.015625 C 217.980469 343.105469 216.011719 343.054688 214.078125 342.859375 C 213.664062 342.816406 213.292969 343.117188 213.253906 343.53125 C 213.214844 343.945312 213.511719 344.3125 213.925781 344.355469 C 215.933594 344.554688 217.976562 344.605469 220.03125 344.511719 C 220.445312 344.496094 220.765625 344.144531 220.75 343.730469 C 220.730469 343.316406 220.378906 342.996094 219.964844 343.015625 Z M 208.292969 341.804688 C 206.394531 341.292969 204.554688 340.621094 202.800781 339.78125 C 202.425781 339.605469 201.976562 339.761719 201.796875 340.136719 C 201.617188 340.511719 201.777344 340.957031 202.152344 341.136719 C 203.992188 342.015625 205.917969 342.71875 207.90625 343.253906 C 208.304688 343.363281 208.714844 343.125 208.824219 342.726562 C 208.933594 342.324219 208.695312 341.914062 208.292969 341.804688 Z M 197.796875 336.761719 C 196.257812 335.609375 194.820312 334.292969 193.503906 332.804688 C 193.230469 332.492188 192.757812 332.464844 192.445312 332.738281 C 192.136719 333.015625 192.105469 333.488281 192.378906 333.796875 C 193.761719 335.363281 195.277344 336.75 196.894531 337.964844 C 197.226562 338.210938 197.695312 338.144531 197.945312 337.8125 C 198.195312 337.480469 198.128906 337.011719 197.796875 336.761719 Z M 190.050781 328.0625 C 188.960938 326.289062 188.085938 324.542969 187.40625 322.824219 C 187.257812 322.441406 186.820312 322.25 186.433594 322.402344 C 186.046875 322.554688 185.859375 322.992188 186.011719 323.378906 C 186.726562 325.183594 187.640625 327.003906 188.773438 328.847656 C 188.988281 329.203125 189.449219 329.3125 189.804688 329.097656 C 190.160156 328.878906 190.269531 328.417969 190.050781 328.0625 Z M 185.855469 317.214844 C 185.546875 315.253906 185.492188 313.324219 185.667969 311.417969 C 185.707031 311.007812 185.402344 310.640625 184.988281 310.601562 C 184.578125 310.566406 184.210938 310.867188 184.175781 311.28125 C 183.984375 313.304688 184.046875 315.359375 184.371094 317.445312 C 184.4375 317.855469 184.820312 318.132812 185.230469 318.070312 C 185.640625 318.007812 185.917969 317.625 185.855469 317.214844 Z M 186.894531 305.738281 C 187.503906 303.945312 188.308594 302.167969 189.304688 300.40625 C 189.511719 300.046875 189.382812 299.585938 189.023438 299.382812 C 188.664062 299.179688 188.203125 299.308594 188 299.667969 C 186.960938 301.5 186.113281 303.363281 185.472656 305.257812 C 185.339844 305.648438 185.550781 306.074219 185.941406 306.210938 C 186.335938 306.34375 186.761719 306.128906 186.894531 305.738281 Z M 192.578125 295.507812 C 193.742188 294 195.035156 292.503906 196.445312 291.019531 C 196.730469 290.71875 196.71875 290.246094 196.417969 289.960938 C 196.121094 289.675781 195.644531 289.6875 195.359375 289.984375 C 193.914062 291.503906 192.589844 293.035156 191.390625 294.59375 C 191.140625 294.917969 191.199219 295.390625 191.527344 295.644531 C 191.855469 295.898438 192.328125 295.835938 192.578125 295.507812 Z M 200.71875 286.882812 C 201.417969 286.253906 202.136719 285.628906 202.875 285.003906 C 203.195312 284.738281 203.230469 284.265625 202.964844 283.945312 C 202.699219 283.628906 202.222656 283.589844 201.90625 283.859375 C 201.15625 284.488281 200.425781 285.128906 199.710938 285.769531 C 199.40625 286.046875 199.378906 286.519531 199.65625 286.828125 C 199.933594 287.136719 200.40625 287.164062 200.71875 286.882812 " fill-opacity="1" fill-rule="nonzero"/></g></g></g></svg>